<?xml version="1.0" encoding="utf-8"?>
<!-- Generator: Adobe Illustrator 17.0.0, SVG Export Plug-In . SVG Version: 6.00 Build 0)  -->
<!DOCTYPE svg PUBLIC "-//W3C//DTD SVG 1.1//EN" "http://www.w3.org/Graphics/SVG/1.1/DTD/svg11.dtd">
<svg version="1.1" id="Layer_1" xmlns="http://www.w3.org/2000/svg" xmlns:xlink="http://www.w3.org/1999/xlink" x="0px" y="0px"
	 width="396px" height="380px" viewBox="0 0 396 380" enable-background="new 0 0 396 380" xml:space="preserve">
<g>
	<path d="M200.718,371.177c-99.121,0-125.802-5.021-148.897-28.115c-23.238-23.238-28.115-49.776-28.115-148.897
		S28.726,68.505,51.821,45.267c23.095-23.095,49.776-28.116,148.897-28.116s125.803,5.021,148.897,28.116
		c23.238,23.238,28.115,49.776,28.115,148.897s-4.877,125.659-28.115,148.897C326.521,366.157,299.84,371.177,200.718,371.177z"/>
	<path fill="#FFFFFF" d="M270.146,194.021c-6.742,0-11.189-4.447-11.189-11.045c0-6.455,4.447-10.902,11.189-10.902h17.644v21.947
		H270.146z M302.565,159.307h-34.14c-14.488,0-24.386,9.467-24.386,23.095c0,10.758,6.168,18.935,15.923,21.804l-18.648,28.402
		h16.496l16.783-25.82h13.197v25.82h14.775V159.307z M117.806,178.529v-22.091h28.689v62.686h-36.005
		C114.364,212.382,117.806,196.746,117.806,178.529z M161.701,142.237h-58.526v36.866c0,18.791-3.299,33.423-7.746,40.022H88.4
		v33.423h14.488v-19.796h54.797v19.796h14.488v-33.423h-10.472V142.237z M205.882,220.128l-1.291-0.861l17.07-59.961h-34.571
		l-3.73,13.341l20.083-0.143l-13.054,45.759c-2.295,8.32,3.299,16.066,12.48,16.066c2.869,0,5.738-0.717,8.894-2.726l23.525-15.922
		l-7.172-10.615L205.882,220.128z M215.924,145.536c7.316,0,10.328-2.726,10.328-9.181c0-6.742-3.156-9.467-10.328-9.467
		c-7.172,0-10.328,2.726-10.328,9.467C205.596,142.811,208.608,145.536,215.924,145.536z"/>
</g>
</svg>
