<?xml version="1.0" encoding="utf-8"?>
<!-- Generator: Adobe Illustrator 22.1.0, SVG Export Plug-In . SVG Version: 6.00 Build 0)  -->
<svg version="1.1" id="Слой_1" xmlns="http://www.w3.org/2000/svg" xmlns:xlink="http://www.w3.org/1999/xlink" x="0px" y="0px"
	 viewBox="0 0 60 60" style="enable-background:new 0 0 60 60;" xml:space="preserve">
<path d="M0,15h6V6h9V0H4.4C1.9,0,0,1.9,0,4.4V15z"/>
<path d="M15,60v-6H6v-9H0v10.6C0,58.1,1.9,60,4.4,60H15z"/>
<path d="M60,45h-6v9h-9v6h10.6c2.4,0,4.4-1.9,4.4-4.4V45z"/>
<path d="M45,0v6h9v9h6V4.4C60,1.9,58.1,0,55.6,0H45z"/>
<g>
	<path d="M27.8,35.6c-1.3,1.6-2.9,2.6-5,3v0.6c0,0.8,0.4,1.1,1.3,1.1l2.2,0v3c-0.9,0.1-1.8,0.1-2.4,0.1c-1.6,0-2.7-0.3-3.4-1
		c-0.7-0.7-1.1-1.8-1.1-3.3v-0.4c-2.3-0.3-4-1.3-5.3-2.9c-1.3-1.6-1.9-3.6-1.9-6.1c0-2.7,0.8-5,2.4-6.6c1.6-1.7,3.8-2.5,6.4-2.5
		c2.7,0,4.8,0.8,6.4,2.5c1.6,1.7,2.4,3.9,2.4,6.6C29.7,32,29,34,27.8,35.6z M17.4,33.8c0.9,1,2,1.5,3.4,1.5c1.4,0,2.6-0.5,3.4-1.5
		c0.9-1,1.3-2.4,1.3-4.1c0-1.7-0.4-3.1-1.3-4.1c-0.9-1-2-1.5-3.4-1.5c-1.4,0-2.6,0.5-3.4,1.5c-0.9,1-1.3,2.4-1.3,4.1
		C16.1,31.4,16.5,32.8,17.4,33.8z"/>
	<path d="M40.4,32h-3.2v6.6h-4V20.8H41c2.1,0,3.8,0.5,4.9,1.5s1.8,2.4,1.8,4.1c0,1.2-0.3,2.3-0.9,3.1c-0.6,0.9-1.4,1.5-2.5,2
		l4.3,7.1h-4.5L40.4,32z M37.2,28.9h3.6c1.9,0,2.9-0.8,2.9-2.4c0-1.6-1-2.3-2.9-2.3h-3.6V28.9z"/>
</g>
</svg>
